{"title":"Mallrats.1995.DVDRip.x264.AAC-AUS","uid":6881504,"size":964597130,"categoryP":"video","categoryS":"movies","magnet":"?xt=urn:btih:f5da0402c0fb4c001d451b5eae63a4a4449d2d04&amp;dn=Mallrats.1995.DVDRip.x264.AAC-AUS&amp;tr=udp%3A%2F%2Ftracker.openbittorrent.com%3A80&amp;tr=udp%3A%2F%2Fopen.demonii.com%3A1337&amp;tr=udp%3A%2F%2Ftracker.coppersurfer.tk%3A6969&amp;tr=udp%3A%2F%2Fexodus.desync.com%3A6969","seeders":0,"leechers":0,"uploader":".morden","files":-1,"time":1323683459,"description":"Both dumped by their girlfriends, two best friends seek refuge in the local mall.\n\nGeneral \nComplete name : Mallrats.1995.DVDRip.x264.AAC-AUS.mp4 \nFormat : MPEG-4 \nFormat profile : Base Media / Version 2 \nCodec ID : mp42 \nFile size : 918 MiB \nDuration : 1h 31mn \nOverall bit rate : 1 407 Kbps\n\nVideo \nID : 1 \nFormat : AVC \nFormat/Info : Advanced Video Codec \nFormat profile : &lt;a class=&quot;__cf_email__&quot; href=&quot;/cdn-cgi/l/email-protection&quot; data-cfemail=&quot;7931101e1139354a5749&quot;&gt;[email&amp;#160;protected]&lt;/a&gt;&lt;script cf-hash='f9e31' type=&quot;text/javascript&quot;&gt;\n/* &lt;![CDATA[ */!function(){try{var t=&quot;currentScript&quot;in document?document.currentScript:function(){for(var t=document.getElementsByTagName(&quot;script&quot;),e=t.length;e--;)if(t[e].getAttribute(&quot;cf-hash&quot;))return t[e]}();if(t&amp;&amp;t.previousSibling){var e,r,n,i,c=t.previousSibling,a=c.getAttribute(&quot;data-cfemail&quot;);if(a){for(e=&quot;&quot;,r=parseInt(a.substr(0,2),16),n=2;a.length-n;n+=2)i=parseInt(a.substr(n,2),16)^r,e+=String.fromCharCode(i);e=document.createTextNode(e),c.parentNode.replaceChild(e,c)}}}catch(u){}}();/* ]]&gt; */&lt;/script&gt; \nFormat settings, CABAC : Yes \nFormat settings, ReFrames : 4 frames \nCodec ID : avc1 \nCodec ID/Info : Advanced Video Coding \nDuration : 1h 31mn \nBit rate mode : Variable \nBit rate : 1 100 Kbps \nWidth : 720 pixels \nHeight : 416 pixels \nDisplay aspect ratio : 16:9 \nFrame rate mode : Variable \nFrame rate : 25.000 fps \nMinimum frame rate : 8.334 fps \nMaximum frame rate : 25.000 fps \nColor space : YUV \nChroma subsampling : 4:2:0 \nBit depth : 8 bits \nScan type : Progressive \nBits/(Pixel*Frame) : 0.147 \nStream size : 718 MiB (78%) \nWriting library : x264 core 112 \n\nAudio \nID : 2 \nFormat : AAC \nFormat/Info : Advanced Audio Codec \nFormat profile : LC \nCodec ID : 40 \nDuration : 1h 31mn \nBit rate mode : Variable \nBit rate : 303 Kbps \nMaximum bit rate : 369 Kbps \nChannel(s) : 2 channels \nChannel positions : Front: L R \nSampling rate : 48.0 KHz \nCompression mode : Lossy \nStream size : 198 MiB (22%) \nLanguage : English","torrent":{"xt":"urn:btih:f5da0402c0fb4c001d451b5eae63a4a4449d2d04","amp;dn":"Mallrats.1995.DVDRip.x264.AAC-AUS","amp;tr":["udp%3A%2F%2Ftracker.openbittorrent.com%3A80","udp%3A%2F%2Fopen.demonii.com%3A1337","udp%3A%2F%2Ftracker.coppersurfer.tk%3A6969","udp%3A%2F%2Fexodus.desync.com%3A6969"],"infoHash":"f5da0402c0fb4c001d451b5eae63a4a4449d2d04","infoHashBuffer":{"type":"Buffer","data":[245,218,4,2,192,251,76,0,29,69,27,94,174,99,164,164,68,157,45,4]},"announce":[],"urlList":[]}}